<?xml version="1.0" encoding="utf-8"?>
<!-- Generator: Adobe Illustrator 25.2.3, SVG Export Plug-In . SVG Version: 6.00 Build 0)  -->
<svg version="1.1" id="Capa_1" xmlns="http://www.w3.org/2000/svg" xmlns:xlink="http://www.w3.org/1999/xlink" x="0px" y="0px"
	 viewBox="0 0 634.29 778.99" style="enable-background:new 0 0 634.29 778.99;" xml:space="preserve">
<style type="text/css">
	.st0{fill:#FFFFFF;}
	.st1{fill:#1E91EB;}
	.st2{fill:#5C0087;}
</style>
<g>
	<path class="st1" d="M143.43,220.46c-5.54,0-10.65-2.45-14.04-6.71c-3.4-4.28-4.64-9.86-3.4-15.31l18.92-83.62
		c3.11-13.73,10.31-25.29,21.42-34.36c11.13-9.08,23.77-13.68,37.57-13.68c14.26,0,25.26,4.88,32.71,14.51
		c7.43,9.59,9.57,21.64,6.36,35.83l-19.98,88.33c-1.97,8.71-9.84,15.02-18.7,15.02H143.43z"/>
	<path class="st1" d="M487.21,220.46c-5.54,0-10.65-2.45-14.04-6.71c-3.4-4.28-4.64-9.85-3.4-15.31l18.69-82.69
		c3.23-14.3,10.48-26.02,21.56-34.83c11.11-8.78,23.7-13.24,37.41-13.24c14.78,0,25.96,4.76,33.21,14.13
		c7.23,9.34,9.21,21.53,5.89,36.23l-19.76,87.4c-1.97,8.71-9.83,15.03-18.7,15.03H487.21z"/>
	<path class="st1" d="M213.33,738.24c-15.96,0-31.16-1.45-45.16-4.31c-16.53-3.31-31.68-8.51-45.06-15.47
		c-3.82-1.93-7.45-3.98-11.16-6.29c-25.39-15.77-43.82-38.45-54.78-67.4c-1.21-3.07-2.26-6.04-3.23-9.13
		c-0.7-2.2-1.32-4.36-1.83-6.43c-2.13-7.79-3.69-16.26-4.67-25.31c-1.38-12.14-1.6-25.09-0.65-38.52
		c0.94-15.21,3.39-31.67,7.29-48.96l29.8-131.86l9.03-51.83l9.47-38.86c1.98-8.75,9.84-15.04,18.71-15.04h60.84
		c5.54,0,10.66,2.45,14.05,6.72c3.39,4.28,4.63,9.87,3.4,15.32l-47.23,217.85c-3.83,16.94-5.56,32.53-5.12,46.29
		c0.41,13.06,2.92,24.84,7.44,35.01c2.44,5.58,5.7,10.89,9.67,15.74c1.85,2.25,3.92,4.47,6.34,6.81c5.73,5.5,12.32,10.14,19.6,13.77
		c11.75,6.03,25.99,9.82,42.26,11.22c5.45,0.46,10.45,0.67,15.74,0.67c22.4,0,44.1-4.59,64.51-13.65c8.3-3.68,15.88-7.81,23.17-12.6
		c10.62-6.91,20.16-15.04,28.34-24.15c10.42-11.61,18.17-24.39,23.05-37.98c1.59-4.28,2.88-8.65,3.93-13.31l55.09-252.67
		c1.96-8.69,9.83-15.03,18.7-15.03h60.85c5.54,0,10.66,2.45,14.05,6.71c3.38,4.28,4.62,9.86,3.39,15.32l-85.03,385.12
		c-2.75,12.17-8.64,22.66-17.52,31.15c-0.96,1-2.18,2.07-3.16,2.91c-11.04,9.29-23.95,14.02-38.34,14.02
		c-14.22,0-25.22-4.89-32.69-14.55c-0.75-0.96-1.39-1.93-2.19-3.18c-2.9-4.66-4.71-9.93-5.34-15.61l-0.98-8.86l-7.46,4.87
		c-13.12,8.55-27.06,15.93-41.45,21.92c-3.54,1.52-7.27,2.99-11.44,4.52C270.15,733.17,241.8,738.24,213.33,738.24z"/>
</g>
</svg>
