<svg width="141" height="33" viewBox="0 0 141 33" fill="none" xmlns="http://www.w3.org/2000/svg">
<path d="M41.8206 10.9666C41.1051 10.54 40.0404 10.326 38.6252 10.326C37.2901 10.326 35.9826 10.5938 34.7026 11.1268C33.4213 11.6611 32.2871 12.3949 31.2999 13.3283L31.4521 12.5682C31.7186 11.2344 31.1843 10.5662 29.8505 10.5662C29.2099 10.5662 28.6808 10.7408 28.266 11.0861C27.8498 11.434 27.5781 11.9276 27.4494 12.5682L23.8734 30.4655C23.7395 31.1324 23.813 31.6326 24.094 31.966C24.3736 32.3008 24.8344 32.4662 25.475 32.4662C26.1419 32.4662 26.6775 32.2929 27.0805 31.9463C27.4836 31.5998 27.7488 31.1061 27.8774 30.4655L30.2142 18.7738C30.5135 17.2798 31.3366 16.0918 32.6888 15.2109C34.0396 14.33 35.6754 13.8889 37.5973 13.8889C38.2642 13.8889 39.1136 13.9821 40.1441 14.1698C40.4001 14.2237 40.5944 14.2499 40.7283 14.2499C41.5554 14.2499 42.175 13.8233 42.5859 12.9686C42.6279 12.8886 42.6686 12.756 42.7067 12.5682C42.8301 11.9276 42.536 11.3933 41.8206 10.9666Z" fill="white"/>
<path d="M62.0835 11.8475C60.7142 10.8865 59.068 10.4061 57.1461 10.4061C55.597 10.4061 54.0925 10.7264 52.6301 11.367C51.1663 12.0077 49.8535 12.9017 48.6904 14.0491L51.2372 2.25233C51.3593 1.63926 51.2713 1.14564 50.9733 0.771498C50.674 0.397352 50.2185 0.210938 49.6041 0.210938C49.0173 0.210938 48.4922 0.397352 48.0301 0.771498C47.568 1.14564 47.2765 1.63926 47.1531 2.25233L43.1176 21.4965C42.7014 23.5786 42.8104 25.4677 43.4471 27.1625C44.0825 28.8573 45.138 30.1924 46.6109 31.1665C48.0839 32.1419 49.8483 32.6277 51.9041 32.6277C53.9599 32.6277 55.9317 32.1406 57.8222 31.1665C59.7113 30.1924 61.3063 28.8587 62.606 27.1625C63.9056 25.4677 64.7629 23.5786 65.179 21.4965C65.5952 19.4144 65.5243 17.5266 64.969 15.8318C64.415 14.137 63.4527 12.8085 62.0835 11.8475ZM61.2564 21.4965C60.9742 22.9117 60.4031 24.193 59.5472 25.3404C58.6899 26.4878 57.6568 27.3896 56.445 28.0434C55.2333 28.6972 53.9599 29.0241 52.6261 29.0241C51.291 29.0241 50.1489 28.6972 49.1984 28.0434C48.248 27.3896 47.5798 26.4891 47.1964 25.3404C46.8118 24.193 46.7606 22.9117 47.0442 21.4965C47.3264 20.0826 47.8883 18.8079 48.7298 17.6737C49.57 16.5394 50.5966 15.6454 51.8083 14.9916C53.02 14.3379 54.2934 14.011 55.6272 14.011C56.961 14.011 58.1044 14.3379 59.0549 14.9916C60.0053 15.6454 60.6801 16.5394 61.0818 17.6737C61.4796 18.8079 61.5387 20.0813 61.2564 21.4965Z" fill="white"/>
<path d="M86.7022 11.8672C85.228 10.8931 83.4636 10.4061 81.4091 10.4061C79.3533 10.4061 77.3814 10.8931 75.4923 11.8672C73.6019 12.8413 72.0082 14.1764 70.7085 15.8712C69.4089 17.566 68.5503 19.4538 68.1341 21.5359C67.718 23.618 67.7876 25.5071 68.3429 27.2019C68.8982 28.8967 69.8605 30.2253 71.2297 31.1849C72.5989 32.1459 74.2439 32.6264 76.1658 32.6264C77.7136 32.6264 79.2193 32.306 80.6818 31.6654C82.1442 31.0248 83.457 30.1307 84.6202 28.9834L84.3248 30.4655C84.2066 31.0523 84.3025 31.5407 84.6136 31.9266C84.9221 32.3139 85.3711 32.5069 85.9592 32.5069C86.546 32.5069 87.0725 32.3139 87.5359 31.9266C88.0006 31.5407 88.2907 31.0523 88.4089 30.4655L90.193 21.5372C90.6091 19.4551 90.4988 17.5673 89.8634 15.8725C89.2294 14.1764 88.1752 12.8426 86.7022 11.8672ZM86.2703 21.5359C85.9868 22.9511 85.4262 24.2258 84.586 25.3588C83.7445 26.493 82.7192 27.387 81.5075 28.0408C80.2958 28.6946 79.0224 29.0214 77.6886 29.0214C76.3535 29.0214 75.2114 28.6946 74.2609 28.0408C73.3105 27.387 72.6344 26.493 72.2353 25.3588C71.8349 24.2245 71.7758 22.9511 72.0581 21.5359C72.3403 20.1207 72.9101 18.8407 73.7673 17.6921C74.6233 16.5447 75.6577 15.6441 76.8695 14.989C78.0812 14.3352 79.3546 14.0084 80.6884 14.0084C82.0221 14.0084 83.1656 14.3352 84.1161 14.989C85.0665 15.6428 85.7334 16.5447 86.1194 17.6921C86.5027 18.8407 86.5526 20.122 86.2703 21.5359Z" fill="white"/>
<path d="M113.032 30.4655L115.001 20.6156C115.433 18.4535 115.388 16.6064 114.868 15.0704C114.347 13.5358 113.432 12.3687 112.124 11.5666C110.816 10.7658 109.242 10.3654 107.4 10.3654C106.065 10.3654 104.764 10.5991 103.497 11.0664C102.229 11.5338 101.083 12.1941 100.057 13.0487L100.145 12.6089C100.267 11.9959 100.179 11.5022 99.8814 11.1281C99.582 10.754 99.1252 10.5675 98.5121 10.5675C97.9253 10.5675 97.4002 10.754 96.9394 11.1281C96.4773 11.5022 96.1859 11.9959 96.0624 12.6089L92.493 30.4655C92.3761 31.0523 92.472 31.5394 92.7818 31.9266C93.0903 32.3139 93.5393 32.5069 94.1274 32.5069C94.7405 32.5069 95.2735 32.3139 95.7251 31.9266C96.1753 31.5407 96.4602 31.0523 96.5771 30.4655L98.8337 19.1755C99.0254 18.2145 99.4586 17.3481 100.133 16.5736C100.81 15.799 101.652 15.1859 102.663 14.7317C103.674 14.2788 104.741 14.0517 105.862 14.0517C107.784 14.0517 109.215 14.6057 110.155 15.7137C111.095 16.8217 111.349 18.4561 110.917 20.6183L108.949 30.4681C108.831 31.055 108.926 31.542 109.238 31.9293C109.547 32.3165 109.995 32.5095 110.583 32.5095C111.17 32.5095 111.695 32.3165 112.16 31.9293C112.623 31.5394 112.915 31.0523 113.032 30.4655Z" fill="white"/>
<path d="M140.251 15.7714C139.639 14.0898 138.594 12.7757 137.115 11.8278C135.635 10.88 133.842 10.4061 131.734 10.4061C129.598 10.4061 127.596 10.88 125.724 11.8278C123.853 12.7757 122.283 14.0898 121.012 15.7714C119.741 17.4531 118.891 19.3751 118.459 21.5372C118.032 23.6731 118.117 25.5819 118.716 27.2623C119.313 28.944 120.358 30.2581 121.851 31.2059C123.344 32.1538 125.157 32.6277 127.292 32.6277C129.428 32.6277 131.424 32.1538 133.281 31.2059C135.139 30.2581 136.702 28.944 137.973 27.2623C139.243 25.5806 140.092 23.6731 140.519 21.5372C140.952 19.3737 140.863 17.4518 140.251 15.7714ZM136.596 21.5359C136.309 22.9774 135.751 24.2652 134.924 25.3995C134.097 26.5337 133.078 27.4211 131.869 28.0618C130.66 28.7024 129.375 29.0228 128.013 29.0228C126.652 29.0228 125.494 28.7024 124.542 28.0618C123.589 27.4211 122.918 26.5337 122.532 25.3995C122.145 24.2652 122.095 22.9774 122.384 21.5359C122.671 20.0945 123.237 18.8001 124.081 17.6527C124.924 16.5053 125.951 15.6113 127.16 14.9706C128.369 14.33 129.654 14.0097 131.016 14.0097C132.377 14.0097 133.535 14.33 134.487 14.9706C135.44 15.6113 136.101 16.5053 136.473 17.6527C136.843 18.8014 136.885 20.0945 136.596 21.5359Z" fill="white"/>
<path d="M5.34075 7.78572C5.07557 7.78572 4.83139 7.66888 4.6686 7.46409C4.50582 7.25929 4.44674 6.99279 4.50582 6.73155L5.41164 2.72885C5.55999 2.07114 5.90525 1.51846 6.43693 1.08392C6.96992 0.649389 7.57512 0.428841 8.23545 0.428841C8.91811 0.428841 9.44453 0.662519 9.80161 1.12331C10.1574 1.58279 10.2598 2.1591 10.1062 2.83781L9.14916 7.065C9.05464 7.48115 8.67787 7.78441 8.25383 7.78441H5.34075V7.78572Z" fill="white"/>
<path d="M21.7953 7.78572C21.5301 7.78572 21.2859 7.66888 21.1231 7.46409C20.9603 7.25929 20.9013 6.99279 20.9603 6.73155L21.8543 2.77348C22.0093 2.08952 22.3558 1.52765 22.8862 1.10624C23.4179 0.686149 24.0204 0.472162 24.6768 0.472162C25.3844 0.472162 25.9187 0.699277 26.2666 1.14825C26.6119 1.5946 26.7077 2.17879 26.5489 2.88245L25.6037 7.065C25.5092 7.48115 25.1324 7.78441 24.7084 7.78441H21.7953V7.78572Z" fill="white"/>
<path d="M8.68705 32.5686C7.92301 32.5686 7.19572 32.499 6.52489 32.3625C5.73328 32.2036 5.00862 31.9555 4.36797 31.6221C4.1855 31.5302 4.0109 31.4317 3.83367 31.3214C2.61802 30.5666 1.73583 29.4809 1.21203 28.0946C1.15426 27.9476 1.10438 27.8058 1.05712 27.6574C1.02298 27.5524 0.994102 27.4487 0.969159 27.3502C0.866762 26.9774 0.791932 26.5718 0.745984 26.1385C0.680345 25.557 0.669843 24.9373 0.714478 24.2954C0.759113 23.5668 0.877263 22.7791 1.06368 21.952L2.48937 15.6401L2.92128 13.159L3.37419 11.2987C3.46871 10.88 3.84548 10.5793 4.26951 10.5793H7.18391C7.44909 10.5793 7.69458 10.6962 7.85606 10.901C8.01884 11.1058 8.07792 11.3736 8.01884 11.6335L5.75822 22.061C5.57443 22.8723 5.49172 23.618 5.51273 24.277C5.53242 24.9019 5.65188 25.4664 5.86849 25.9521C5.98533 26.2199 6.14155 26.4733 6.33191 26.7057C6.41987 26.8133 6.51964 26.9196 6.63516 27.0312C6.90954 27.2951 7.22461 27.517 7.57381 27.6902C8.137 27.9791 8.81833 28.1602 9.59682 28.2272C9.85806 28.2495 10.097 28.2587 10.3504 28.2587C11.4229 28.2587 12.4613 28.0395 13.438 27.6049C13.8358 27.429 14.1981 27.2308 14.5474 27.0023C15.0554 26.6715 15.5123 26.2816 15.9035 25.8458C16.4023 25.2905 16.7738 24.6787 17.0062 24.0276C17.0823 23.8228 17.1441 23.614 17.1939 23.3909L19.8313 11.2974C19.9259 10.8813 20.3026 10.578 20.7267 10.578H23.6397C23.9049 10.578 24.1491 10.6949 24.3119 10.8997C24.4734 11.1045 24.5338 11.3723 24.4747 11.6322L20.405 30.0651C20.2737 30.648 19.9915 31.1495 19.5662 31.5564C19.5202 31.6037 19.4611 31.6549 19.4152 31.6956C18.8874 32.1406 18.2691 32.3664 17.5799 32.3664C16.8999 32.3664 16.3734 32.1327 16.0151 31.6706C15.9796 31.6247 15.9481 31.5787 15.91 31.5183C15.7709 31.2952 15.6842 31.0431 15.654 30.7714L15.6068 30.3473L15.2497 30.5797C14.6222 30.9893 13.954 31.3424 13.2661 31.6286C13.0967 31.7008 12.9182 31.7717 12.7186 31.8452C11.4058 32.3257 10.0497 32.5686 8.68705 32.5686Z" fill="white"/>
</svg>
